<svg width="24" height="24" viewBox="0 0 24 24" fill="none" xmlns="http://www.w3.org/2000/svg">
<path d="M1.88875 6.343L10.8888 11.1778C11.1912 11.3398 11.5824 11.4166 11.976 11.4166C12.3696 11.4166 12.7608 11.3398 13.0632 11.1778L22.0632 6.343C22.65 6.0274 23.2044 4.7998 22.128 4.7998H1.82515C0.748753 4.7998 1.30315 6.0274 1.88875 6.343V6.343ZM22.3356 8.9866L13.0632 13.819C12.6552 14.0326 12.3696 14.0578 11.976 14.0578C11.5824 14.0578 11.2968 14.0326 10.8888 13.819C10.4808 13.6054 2.32915 9.3322 1.66315 8.9854C1.19515 8.7406 1.19995 9.0274 1.19995 9.2482V17.9998C1.19995 18.5038 1.87915 19.1998 2.39995 19.1998H21.6C22.1208 19.1998 22.8 18.5038 22.8 17.9998V9.24941C22.8 9.02861 22.8048 8.7418 22.3356 8.9866V8.9866Z" fill="#121111"/>
</svg>
